<svg height="512.00001pt" viewBox="0 0 512.00001 512.00001" width="512.00001pt" xmlns="http://www.w3.org/2000/svg"><path d="m190.984375 160.503906 22.859375-22.859375 45.878906 45.878907-22.859375 22.859374zm0 0" fill="#b0b4b9"/><path d="m305.609375 275.125 22.859375-22.859375 45.878906 45.878906-22.859375 22.859375zm0 0" fill="#b0b4b9"/><path d="m248.21875 126.136719-68.742188 68.742187-126.136718-125.972656 68.90625-68.90625zm0 0" fill="#57565c"/><path d="m512 389.753906-68.90625 68.90625-125.972656-126.136718 68.742187-68.742188zm0 0" fill="#57565c"/><path d="m408.773438 194.925781-22.925782-22.925781 22.925782-22.921875 22.925781 22.921875zm-68.773438-68.773437-22.925781-22.925782 22.925781-22.925781 22.921875 22.925781zm0 0" fill="#b0b4b9"/><path d="m145.914062 366.085938c-6.320312-6.324219-6.320312-16.601563 0-22.925782l20.964844-20.964844 22.925782 22.925782-20.964844 20.964844c-6.324219 6.320312-16.601563 6.320312-22.925782 0zm0 0" fill="#57565c"/><path d="m129.703125 512c-71.515625 0-129.703125-58.1875-129.703125-129.703125h32.425781c0 53.648437 43.628907 97.277344 97.277344 97.277344zm0 0" fill="#d7dee2"/><path d="m145.914062 447.148438c-44.699218 0-81.0625-36.363282-81.0625-81.0625h32.425782c0 26.816406 21.820312 48.636718 48.636718 48.636718zm0 0" fill="#d7dee2"/><path d="m200.390625 173.964844-20.914063 20.914062-21.402343-21.238281c6.484375-.972656 12.972656-1.296875 19.457031-1.296875 7.617188 0 15.402344.484375 22.859375 1.621094zm0 0" fill="#2d2d30"/><path d="m284.371094 319.390625 32.75-32.75zm0 0" fill="#898890"/><path d="m339.65625 334.46875c0 6.484375-.324219 12.972656-1.296875 19.457031l-21.238281-21.402343 20.914062-20.914063c1.136719 7.457031 1.621094 15.242187 1.621094 22.859375zm0 0" fill="#2d2d30"/><path d="m192.613281 227.628906 101.492188-101.492187 91.757812 91.757812-101.492187 101.492188zm0 0" fill="#77959e"/><path d="m317.121094 286.640625-32.75 32.75-91.761719-91.761719 32.75-32.75-20.105469-20.105468c10.863282 1.785156 21.402344 4.703124 31.453125 8.753906 5.351563 1.945312 10.699219 4.378906 15.886719 7.136718 14.429688 7.617188 27.726562 17.347657 39.5625 29.179688 11.832031 11.835938 21.5625 25.132812 29.179688 39.5625 2.757812 5.1875 5.191406 10.535156 7.136718 15.886719 4.050782 10.050781 6.96875 20.589843 8.753906 31.453125zm0 0" fill="#62808c"/><path d="m328.472656 275.292969-11.351562 11.347656 20.105468 20.105469c-1.785156-10.863282-4.703124-21.402344-8.753906-31.453125zm0 0" fill="#9da2a5"/><path d="m225.359375 194.878906-32.75 32.75zm0 0" fill="#898890"/><path d="m205.253906 174.773438 20.105469 20.105468 11.347656-11.351562c-10.050781-4.050782-20.589843-6.96875-31.453125-8.753906zm0 0" fill="#9da2a5"/><path d="m257.765625 437.648438-183.414063-183.414063 11.460938-11.464844c24.5-24.496093 57.070312-37.984375 91.71875-37.984375 34.644531 0 67.21875 13.488282 91.714844 37.984375 24.496094 24.5 37.988281 57.070313 37.988281 91.714844 0 34.648437-13.492187 67.21875-37.988281 91.703125zm0 0" fill="#b0b4b9"/><path d="m269.230469 387.046875-11.464844 11.464844-163.457031-163.457031c-2.917969 2.445312-5.769532 4.992187-8.496094 7.714843l-11.460938 11.464844 183.414063 183.414063 11.464844-11.460938c24.496093-24.5 37.984375-57.070312 37.984375-91.703125 0-6.628906-.648438-13.148437-1.621094-19.566406-4.085938 27.1875-16.535156 52.316406-36.363281 72.128906zm0 0" fill="#9da2a5"/></svg>