<?xml version="1.0" encoding="iso-8859-1"?>
<!-- Generator: Adobe Illustrator 19.0.0, SVG Export Plug-In . SVG Version: 6.00 Build 0)  -->
<svg version="1.1" id="Capa_1" xmlns="http://www.w3.org/2000/svg" xmlns:xlink="http://www.w3.org/1999/xlink" x="0px" y="0px"
	 viewBox="0 0 512 512" style="enable-background:new 0 0 512 512;" xml:space="preserve">
<polygon style="fill:#FF5D5D;" points="61.997,340.51 255.992,447.994 449.988,340.51 255.992,233.027 "/>
<polygon style="fill:#FE8F8D;" points="61.997,249.236 255.992,356.72 449.988,249.236 255.992,141.752 "/>
<polygon style="fill:#FFB9B7;" points="61.997,157.49 255.992,264.975 449.988,157.49 255.992,50.006 "/>
<path d="M459.988,340.51c0-3.636-1.974-6.985-5.153-8.747l-66.582-36.891l66.582-36.891c3.18-1.762,5.153-5.111,5.153-8.747
	s-1.974-6.985-5.153-8.747l-67.007-37.126l67.007-37.126c3.18-1.762,5.153-5.111,5.153-8.747s-1.974-6.985-5.153-8.747
	L260.839,41.259c-3.015-1.671-6.677-1.672-9.693,0L187.937,76.28c-4.831,2.676-6.577,8.763-3.9,13.593
	c2.678,4.832,8.765,6.577,13.594,3.901l58.361-32.336l173.362,96.052l-173.362,96.053L82.631,157.491l50.22-27.824
	c4.831-2.677,6.577-8.763,3.9-13.594c-2.677-4.83-8.763-6.576-13.594-3.9L57.15,148.744c-3.18,1.762-5.153,5.111-5.153,8.747
	s1.974,6.985,5.153,8.747l67.007,37.126L57.15,240.489c-3.18,1.762-5.153,5.111-5.153,8.747s1.974,6.985,5.153,8.747l66.582,36.891
	L57.15,331.765c-3.18,1.762-5.153,5.111-5.153,8.747c0,3.636,1.974,6.985,5.153,8.747l193.995,107.484
	c1.508,0.835,3.177,1.253,4.847,1.253c1.67,0,3.339-0.417,4.847-1.253l193.995-107.484
	C458.014,347.495,459.988,344.146,459.988,340.51z M144.792,214.795l106.354,58.926c1.508,0.835,3.177,1.253,4.847,1.253
	c1.67,0,3.339-0.417,4.847-1.253l106.354-58.926l62.161,34.441l-173.362,96.052L82.631,249.236L144.792,214.795z M255.992,436.563
	L82.631,340.51l61.736-34.205l106.779,59.161c1.508,0.835,3.177,1.253,4.847,1.253c1.67,0,3.339-0.417,4.847-1.253l106.779-59.161
	l61.736,34.205L255.992,436.563z"/>
<path d="M155.104,109.054c1.86,1.86,4.44,2.93,7.07,2.93c2.64,0,5.21-1.07,7.07-2.93c1.87-1.86,2.93-4.44,2.93-7.07
	s-1.06-5.21-2.93-7.07c-1.86-1.86-4.44-2.93-7.07-2.93s-5.2,1.07-7.07,2.93c-1.859,1.86-2.93,4.44-2.93,7.07
	C152.176,104.614,153.245,107.194,155.104,109.054z"/>
<path d="M10,152.824c5.522,0,10-4.477,10-10V20.007h122.816c5.522,0,10-4.477,10-10s-4.478-10-10-10H10c-5.522,0-10,4.477-10,10
	v132.816C0,148.347,4.478,152.824,10,152.824z"/>
<path d="M502,0.007H369.184c-5.522,0-10,4.477-10,10s4.478,10,10,10h122.816v122.816c0,5.523,4.478,10,10,10c5.522,0,10-4.477,10-10
	V10.007C512,4.484,507.522,0.007,502,0.007z"/>
<path d="M502,359.177c-5.522,0-10,4.477-10,10v122.816H389.656c-5.522,0-10,4.477-10,10s4.478,10,10,10H502c5.522,0,10-4.477,10-10
	V369.177C512,363.654,507.522,359.177,502,359.177z"/>
<path d="M142.816,491.993H19.999V369.177c0-5.523-4.478-10-10-10s-10,4.477-10,10v132.816c0,5.523,4.478,10,10,10h132.816
	c5.522,0,10-4.477,10-10S148.339,491.993,142.816,491.993z"/>
<path d="M345.179,491.993c-2.63,0-5.199,1.07-7.069,2.93c-1.86,1.86-2.92,4.44-2.92,7.07c0,2.63,1.06,5.21,2.92,7.07
	c1.859,1.86,4.439,2.93,7.069,2.93c2.641,0,5.221-1.07,7.08-2.93c1.86-1.86,2.92-4.44,2.92-7.07c0-2.63-1.06-5.21-2.92-7.07
	C350.389,493.063,347.82,491.993,345.179,491.993z"/>
<g>
</g>
<g>
</g>
<g>
</g>
<g>
</g>
<g>
</g>
<g>
</g>
<g>
</g>
<g>
</g>
<g>
</g>
<g>
</g>
<g>
</g>
<g>
</g>
<g>
</g>
<g>
</g>
<g>
</g>
</svg>
